<svg width="15" height="16" viewBox="0 0 15 16" fill="none" xmlns="http://www.w3.org/2000/svg">
<path id="Vector" d="M10.7608 0.0903283C10.6113 0.0172367 10.4443 -0.0124189 10.2787 0.0047362C10.1132 0.0218913 9.95581 0.0851682 9.82448 0.187366L4.73187 4.14812H1.48149C1.08857 4.14812 0.71175 4.3042 0.433917 4.58204C0.156085 4.85987 0 5.23669 0 5.62961V10.3704C0 10.7633 0.156085 11.1401 0.433917 11.4179C0.71175 11.6958 1.08857 11.8518 1.48149 11.8518H4.73187L9.82448 15.8126C9.95581 15.9148 10.1132 15.9781 10.2787 15.9953C10.4443 16.0124 10.6113 15.9828 10.7608 15.9097C10.9103 15.8366 11.0363 15.723 11.1244 15.5818C11.2126 15.4406 11.2593 15.2775 11.2593 15.1111V0.888849C11.2593 0.722427 11.2126 0.55935 11.1244 0.418179C11.0363 0.277009 10.9103 0.163416 10.7608 0.0903283ZM1.77778 5.9259H4.14816V10.0741H1.77778V5.9259ZM9.48151 13.2933L5.92595 10.5281V5.47183L9.48151 2.70663V13.2933ZM14.8149 7.99998C14.815 8.79401 14.5252 9.56077 14 10.1563C13.8441 10.3331 13.6242 10.4407 13.3889 10.4554C13.1536 10.4702 12.922 10.3908 12.7452 10.2348C12.5684 10.0788 12.4608 9.85898 12.4461 9.62366C12.4314 9.38833 12.5107 9.1568 12.6667 8.97999C12.905 8.70944 13.0365 8.36127 13.0365 8.00072C13.0365 7.64018 12.905 7.29201 12.6667 7.02146C12.5211 6.8433 12.4502 6.61562 12.469 6.3863C12.4878 6.15697 12.5948 5.94387 12.7675 5.79181C12.9402 5.63975 13.1651 5.56058 13.395 5.57094C13.6249 5.58131 13.8417 5.6804 14 5.84738C14.5248 6.44173 14.8145 7.20716 14.8149 7.99998Z" fill="#00213F"/>
</svg>
