<svg width="93" height="67" viewBox="0 0 93 67" fill="none" xmlns="http://www.w3.org/2000/svg">
<path id="Vector" d="M91.9099 6.35369L32.3925 65.871C32.0471 66.2169 31.6368 66.4913 31.1852 66.6785C30.7336 66.8657 30.2496 66.962 29.7607 66.962C29.2719 66.962 28.7878 66.8657 28.3363 66.6785C27.8847 66.4913 27.4744 66.2169 27.129 65.871L1.09012 39.8322C0.392128 39.1342 0 38.1875 0 37.2004C0 36.2133 0.392128 35.2666 1.09012 34.5686C1.78811 33.8706 2.73479 33.4785 3.7219 33.4785C4.70901 33.4785 5.65569 33.8706 6.35369 34.5686L29.7607 57.9803L86.6463 1.09012C87.3443 0.392126 88.291 -7.35454e-09 89.2781 0C90.2652 7.35454e-09 91.2119 0.392126 91.9099 1.09012C92.6079 1.78811 93 2.73479 93 3.7219C93 4.70901 92.6079 5.65569 91.9099 6.35369Z" fill="#15BC3A"/>
</svg>
