<svg width="4" height="16" viewBox="0 0 4 16" fill="none" xmlns="http://www.w3.org/2000/svg">
<path d="M1.52381 13.0149C1.23479 13.0149 0.952262 13.1006 0.71195 13.2612C0.471639 13.4217 0.284339 13.65 0.173736 13.917M1.52381 13.0149L0.173736 13.917M1.52381 13.0149C1.91137 13.0149 2.28306 13.1688 2.55711 13.4429C2.83116 13.7169 2.98512 14.0886 2.98512 14.4762C2.98512 14.7652 2.89942 15.0477 2.73884 15.288C2.57827 15.5284 2.35005 15.7157 2.08303 15.8263C1.81601 15.9369 1.52219 15.9658 1.23872 15.9094C0.955257 15.853 0.694877 15.7139 0.490509 15.5095C0.286141 15.3051 0.146964 15.0447 0.0905793 14.7613C0.0341944 14.4778 0.0631332 14.184 0.173736 13.917M1.52381 13.0149L0.173736 13.917M0.0625008 1.52381C0.0625008 1.23479 0.148205 0.952261 0.308776 0.71195C0.469347 0.471639 0.697572 0.284339 0.964592 0.173736C1.23161 0.0631332 1.52543 0.0341944 1.8089 0.0905793C2.09236 0.146964 2.35274 0.286141 2.55711 0.490508C2.76148 0.694876 2.90066 0.955257 2.95704 1.23872C3.01343 1.52219 2.98449 1.81601 2.87388 2.08303C2.76328 2.35005 2.57598 2.57827 2.33567 2.73884C2.09536 2.89942 1.81283 2.98512 1.52381 2.98512C1.13625 2.98512 0.764557 2.83116 0.490509 2.55711C0.21646 2.28306 0.0625008 1.91137 0.0625008 1.52381ZM0.71195 6.78497C0.952262 6.62439 1.23479 6.53869 1.52381 6.53869C1.91137 6.53869 2.28306 6.69265 2.55711 6.9667C2.83116 7.24075 2.98512 7.61244 2.98512 8C2.98512 8.28902 2.89942 8.57155 2.73884 8.81186C2.57827 9.05217 2.35005 9.23947 2.08303 9.35007C1.81601 9.46068 1.52219 9.48962 1.23872 9.43323C0.955257 9.37685 0.694877 9.23767 0.490509 9.0333C0.286141 8.82893 0.146964 8.56855 0.0905793 8.28509C0.0341944 8.00162 0.0631332 7.7078 0.173736 7.44078C0.284339 7.17376 0.471639 6.94554 0.71195 6.78497Z" fill="#00213F" stroke="#ECECEC" stroke-width="0.125"/>
</svg>
