<svg width="84" height="84" viewBox="0 0 84 84" fill="none" xmlns="http://www.w3.org/2000/svg">
<path id="Vector" d="M82.7692 76.8266C83.1594 77.2168 83.469 77.68 83.6801 78.1898C83.8913 78.6996 84 79.2461 84 79.7979C84 80.3497 83.8913 80.8961 83.6801 81.406C83.469 81.9158 83.1594 82.379 82.7692 82.7692C82.379 83.1594 81.9158 83.469 81.406 83.6801C80.8961 83.8913 80.3497 84 79.7979 84C79.2461 84 78.6996 83.8913 78.1898 83.6801C77.68 83.469 77.2168 83.1594 76.8266 82.7692L42 47.9374L7.17344 82.7692C6.38539 83.5573 5.31657 84 4.2021 84C3.08763 84 2.01881 83.5573 1.23077 82.7692C0.44272 81.9812 2.19688e-08 80.9124 0 79.7979C-2.19688e-08 78.6834 0.44272 77.6146 1.23077 76.8266L36.0626 42L1.23077 7.17344C0.44272 6.38539 0 5.31657 0 4.2021C0 3.08763 0.44272 2.01881 1.23077 1.23077C2.01881 0.44272 3.08763 0 4.2021 0C5.31657 0 6.38539 0.44272 7.17344 1.23077L42 36.0626L76.8266 1.23077C77.6146 0.44272 78.6834 -2.19688e-08 79.7979 0C80.9124 2.19688e-08 81.9812 0.44272 82.7692 1.23077C83.5573 2.01881 84 3.08763 84 4.2021C84 5.31657 83.5573 6.38539 82.7692 7.17344L47.9374 42L82.7692 76.8266Z" fill="#D63636"/>
</svg>
