<svg width="16" height="16" viewBox="0 0 16 16" fill="none" xmlns="http://www.w3.org/2000/svg">
<path id="Vector" d="M10.0787 6.82277C10.0787 7.05828 9.98514 7.28414 9.81861 7.45067C9.65209 7.6172 9.42623 7.71075 9.19072 7.71075H7.71075V9.19072C7.71075 9.42622 7.6172 9.65208 7.45067 9.81861C7.28414 9.98514 7.05828 10.0787 6.82277 10.0787C6.58727 10.0787 6.3614 9.98514 6.19488 9.81861C6.02835 9.65208 5.93479 9.42622 5.93479 9.19072V7.71075H4.45483C4.21932 7.71075 3.99346 7.6172 3.82693 7.45067C3.6604 7.28414 3.56685 7.05828 3.56685 6.82277C3.56685 6.58727 3.6604 6.3614 3.82693 6.19488C3.99346 6.02835 4.21932 5.93479 4.45483 5.93479H5.93479V4.45483C5.93479 4.21932 6.02835 3.99346 6.19488 3.82693C6.3614 3.6604 6.58727 3.56685 6.82277 3.56685C7.05828 3.56685 7.28414 3.6604 7.45067 3.82693C7.6172 3.99346 7.71075 4.21932 7.71075 4.45483V5.93479H9.19072C9.42623 5.93479 9.65209 6.02835 9.81861 6.19488C9.98514 6.3614 10.0787 6.58727 10.0787 6.82277ZM15.7388 15.7388C15.6563 15.8216 15.5583 15.8873 15.4504 15.9321C15.3424 15.9769 15.2267 16 15.1098 16C14.993 16 14.8773 15.9769 14.7693 15.9321C14.6614 15.8873 14.5634 15.8216 14.4809 15.7388L10.9667 12.2246C9.59362 13.2783 7.87117 13.7702 6.14875 13.6006C4.42633 13.431 2.83291 12.6126 1.69172 11.3114C0.550536 10.0102 -0.052962 8.32358 0.0036512 6.59375C0.0602644 4.86392 0.772749 3.2204 1.99658 1.99658C3.2204 0.772749 4.86393 0.0602644 6.59375 0.0036512C8.32358 -0.052962 10.0102 0.550536 11.3114 1.69172C12.6126 2.83291 13.431 4.42633 13.6006 6.14875C13.7702 7.87117 13.2783 9.59362 12.2246 10.9667L15.7425 14.4838C15.9083 14.6508 16.0011 14.8768 16.0004 15.1121C15.9997 15.3474 15.9056 15.5728 15.7388 15.7388ZM6.82277 11.8547C7.81799 11.8547 8.79085 11.5595 9.61834 11.0066C10.4458 10.4537 11.0908 9.66785 11.4716 8.74839C11.8525 7.82893 11.9521 6.81719 11.758 5.8411C11.5638 4.86501 11.0846 3.96841 10.3809 3.26469C9.67713 2.56097 8.78053 2.08173 7.80444 1.88757C6.82836 1.69342 5.81661 1.79307 4.89715 2.17392C3.9777 2.55477 3.19182 3.19972 2.63891 4.02721C2.086 4.8547 1.79089 5.82756 1.79089 6.82277C1.79246 8.15683 2.3231 9.4358 3.26642 10.3791C4.20975 11.3224 5.48872 11.8531 6.82277 11.8547Z" fill="#00213F"/>
</svg>
