<svg width="40" height="40" viewBox="0 0 40 40" fill="none" xmlns="http://www.w3.org/2000/svg">
<path id="Vector" d="M16 16C16 15.3635 16.2529 14.753 16.7029 14.3029C17.153 13.8529 17.7635 13.6 18.4 13.6H29.6C30.2365 13.6 30.847 13.8529 31.2971 14.3029C31.7471 14.753 32 15.3635 32 16C32 16.6365 31.7471 17.247 31.2971 17.6971C30.847 18.1471 30.2365 18.4 29.6 18.4H18.4C17.7635 18.4 17.153 18.1471 16.7029 17.6971C16.2529 17.247 16 16.6365 16 16ZM29.6 21.6H18.4C17.7635 21.6 17.153 21.8529 16.7029 22.3029C16.2529 22.753 16 23.3635 16 24C16 24.6365 16.2529 25.247 16.7029 25.6971C17.153 26.1471 17.7635 26.4 18.4 26.4H29.6C30.2365 26.4 30.847 26.1471 31.2971 25.6971C31.7471 25.247 32 24.6365 32 24C32 23.3635 31.7471 22.753 31.2971 22.3029C30.847 21.8529 30.2365 21.6 29.6 21.6ZM40 4V36C40 37.0609 39.5786 38.0783 38.8284 38.8284C38.0783 39.5786 37.0609 40 36 40H4C2.93913 40 1.92172 39.5786 1.17157 38.8284C0.421427 38.0783 0 37.0609 0 36V4C0 2.93913 0.421427 1.92172 1.17157 1.17157C1.92172 0.421427 2.93913 0 4 0H36C37.0609 0 38.0783 0.421427 38.8284 1.17157C39.5786 1.92172 40 2.93913 40 4ZM4.8 35.2H8V4.8H4.8V35.2ZM35.2 4.8H12.8V35.2H35.2V4.8Z" fill="white"/>
</svg>
