<svg width="17" height="16" viewBox="0 0 17 16" fill="none" xmlns="http://www.w3.org/2000/svg">
<path id="Vector" d="M6.78477 6.4C6.78477 6.14539 6.88591 5.90121 7.06594 5.72118C7.24598 5.54114 7.49016 5.44 7.74477 5.44H12.2248C12.4794 5.44 12.7236 5.54114 12.9036 5.72118C13.0836 5.90121 13.1848 6.14539 13.1848 6.4C13.1848 6.65461 13.0836 6.89879 12.9036 7.07882C12.7236 7.25886 12.4794 7.36 12.2248 7.36H7.74477C7.49016 7.36 7.24598 7.25886 7.06594 7.07882C6.88591 6.89879 6.78477 6.65461 6.78477 6.4ZM12.2248 8.64H7.74477C7.49016 8.64 7.24598 8.74114 7.06594 8.92118C6.88591 9.10121 6.78477 9.34539 6.78477 9.6C6.78477 9.85461 6.88591 10.0988 7.06594 10.2788C7.24598 10.4589 7.49016 10.56 7.74477 10.56H12.2248C12.4794 10.56 12.7236 10.4589 12.9036 10.2788C13.0836 10.0988 13.1848 9.85461 13.1848 9.6C13.1848 9.34539 13.0836 9.10121 12.9036 8.92118C12.7236 8.74114 12.4794 8.64 12.2248 8.64ZM16.3848 1.6V14.4C16.3848 14.8243 16.2162 15.2313 15.9161 15.5314C15.6161 15.8314 15.2091 16 14.7848 16H1.98477C1.56042 16 1.15345 15.8314 0.853395 15.5314C0.553337 15.2313 0.384766 14.8243 0.384766 14.4V1.6C0.384766 1.17565 0.553337 0.768687 0.853395 0.468629C1.15345 0.168571 1.56042 0 1.98477 0H14.7848C15.2091 0 15.6161 0.168571 15.9161 0.468629C16.2162 0.768687 16.3848 1.17565 16.3848 1.6ZM2.30477 14.08H3.58477V1.92H2.30477V14.08ZM14.4648 1.92H5.50477V14.08H14.4648V1.92Z" fill="#00213F"/>
</svg>
