<svg width="16" height="15" viewBox="0 0 16 15" fill="none" xmlns="http://www.w3.org/2000/svg">
<path d="M13.9259 1.77778H12.0311L11.1111 0.395557C11.0298 0.273686 10.9196 0.173803 10.7904 0.104792C10.6612 0.0357817 10.5169 -0.000216181 10.3704 9.76697e-07H5.62963C5.48312 -0.000216181 5.33884 0.0357817 5.2096 0.104792C5.08037 0.173803 4.9702 0.273686 4.88889 0.395557L3.96815 1.77778H2.07407C1.524 1.77778 0.996446 1.9963 0.607482 2.38526C0.218518 2.77423 0 3.30177 0 3.85185V12.1481C0 12.6982 0.218518 13.2258 0.607482 13.6147C0.996446 14.0037 1.524 14.2222 2.07407 14.2222H13.9259C14.1983 14.2222 14.468 14.1686 14.7196 14.0643C14.9713 13.9601 15.1999 13.8073 15.3925 13.6147C15.5851 13.4221 15.7379 13.1935 15.8421 12.9419C15.9464 12.6902 16 12.4205 16 12.1481V3.85185C16 3.57948 15.9464 3.30978 15.8421 3.05814C15.7379 2.8065 15.5851 2.57786 15.3925 2.38526C15.1999 2.19267 14.9713 2.03989 14.7196 1.93566C14.468 1.83143 14.1983 1.77778 13.9259 1.77778ZM14.2222 12.1481C14.2222 12.2267 14.191 12.3021 14.1354 12.3577C14.0799 12.4132 14.0045 12.4444 13.9259 12.4444H2.07407C1.99549 12.4444 1.92013 12.4132 1.86456 12.3577C1.80899 12.3021 1.77778 12.2267 1.77778 12.1481V3.85185C1.77778 3.77327 1.80899 3.69791 1.86456 3.64234C1.92013 3.58677 1.99549 3.55556 2.07407 3.55556H4.44444C4.59095 3.55577 4.73524 3.51978 4.86447 3.45077C4.9937 3.38175 5.10388 3.28187 5.18519 3.16L6.10519 1.77778H9.89407L10.8148 3.16C10.8961 3.28187 11.0063 3.38175 11.1355 3.45077C11.2648 3.51978 11.4091 3.55577 11.5556 3.55556H13.9259C14.0045 3.55556 14.0799 3.58677 14.1354 3.64234C14.191 3.69791 14.2222 3.77327 14.2222 3.85185V12.1481ZM8 4.14815C7.29678 4.14815 6.60935 4.35668 6.02464 4.74737C5.43993 5.13806 4.98421 5.69336 4.7151 6.34305C4.44598 6.99275 4.37557 7.70765 4.51276 8.39736C4.64996 9.08707 4.98859 9.72061 5.48584 10.2179C5.9831 10.7151 6.61664 11.0538 7.30635 11.1909C7.99606 11.3281 8.71096 11.2577 9.36065 10.9886C10.0103 10.7195 10.5656 10.2638 10.9563 9.67907C11.347 9.09436 11.5556 8.40693 11.5556 7.7037C11.5546 6.76101 11.1797 5.85721 10.5131 5.19063C9.84649 4.52405 8.94269 4.14913 8 4.14815ZM8 9.48148C7.64839 9.48148 7.30467 9.37722 7.01232 9.18187C6.71997 8.98653 6.4921 8.70888 6.35755 8.38403C6.22299 8.05919 6.18779 7.70173 6.25638 7.35688C6.32498 7.01202 6.49429 6.69525 6.74292 6.44663C6.99155 6.198 7.30832 6.02868 7.65317 5.96009C7.99803 5.89149 8.35548 5.9267 8.68033 6.06125C9.00517 6.19581 9.28282 6.42367 9.47817 6.71602C9.67351 7.00838 9.77778 7.35209 9.77778 7.7037C9.77778 8.1752 9.59048 8.62739 9.25708 8.96078C8.92368 9.29418 8.4715 9.48148 8 9.48148Z" fill="#00213F"/>
</svg>
