<svg width="48" height="48" viewBox="0 0 48 48" fill="none" xmlns="http://www.w3.org/2000/svg">
<path id="Vector" d="M44 0H12C10.9391 0 9.92172 0.421427 9.17157 1.17157C8.42143 1.92172 8 2.93913 8 4V8H4C2.93913 8 1.92172 8.42143 1.17157 9.17157C0.421427 9.92172 0 10.9391 0 12V44C0 45.0609 0.421427 46.0783 1.17157 46.8284C1.92172 47.5786 2.93913 48 4 48H36C37.0609 48 38.0783 47.5786 38.8284 46.8284C39.5786 46.0783 40 45.0609 40 44V40H44C45.0609 40 46.0783 39.5786 46.8284 38.8284C47.5786 38.0783 48 37.0609 48 36V4C48 2.93913 47.5786 1.92172 46.8284 1.17157C46.0783 0.421427 45.0609 0 44 0ZM12 4H44V21.345L39.825 17.17C39.0749 16.4204 38.0579 15.9994 36.9975 15.9994C35.9371 15.9994 34.9201 16.4204 34.17 17.17L15.3425 36H12V4ZM36 44H4V12H8V36C8 37.0609 8.42143 38.0783 9.17157 38.8284C9.92172 39.5786 10.9391 40 12 40H36V44ZM44 36H21L37 20L44 27V36ZM22 20C23.1867 20 24.3467 19.6481 25.3334 18.9888C26.3201 18.3295 27.0892 17.3925 27.5433 16.2961C27.9974 15.1997 28.1162 13.9933 27.8847 12.8295C27.6532 11.6656 27.0818 10.5965 26.2426 9.75736C25.4035 8.91824 24.3344 8.3468 23.1705 8.11529C22.0067 7.88378 20.8003 8.0026 19.7039 8.45672C18.6075 8.91085 17.6705 9.67988 17.0112 10.6666C16.3519 11.6533 16 12.8133 16 14C16 15.5913 16.6321 17.1174 17.7574 18.2426C18.8826 19.3679 20.4087 20 22 20ZM22 12C22.3956 12 22.7822 12.1173 23.1111 12.3371C23.44 12.5568 23.6964 12.8692 23.8478 13.2346C23.9991 13.6001 24.0387 14.0022 23.9616 14.3902C23.8844 14.7781 23.6939 15.1345 23.4142 15.4142C23.1345 15.6939 22.7781 15.8844 22.3902 15.9616C22.0022 16.0387 21.6001 15.9991 21.2346 15.8478C20.8692 15.6964 20.5568 15.44 20.3371 15.1111C20.1173 14.7822 20 14.3956 20 14C20 13.4696 20.2107 12.9609 20.5858 12.5858C20.9609 12.2107 21.4696 12 22 12Z" fill="#00213F"/>
</svg>
