<svg width="32" height="32" viewBox="0 0 32 32" fill="none" xmlns="http://www.w3.org/2000/svg">
<g id="DotsThree">
<path id="Vector" d="M25.4379 9.8593L21.1407 5.56306C20.7801 5.20253 20.291 5 19.7811 5C19.2711 5 18.7821 5.20253 18.4214 5.56306L6.56348 17.42C6.38429 17.5981 6.24222 17.81 6.1455 18.0434C6.04877 18.2768 5.99932 18.527 6.00001 18.7797V23.0769C6.00001 23.5869 6.20262 24.0761 6.56327 24.4367C6.92393 24.7974 7.41308 25 7.92312 25H24.0773C24.3833 25 24.6768 24.8784 24.8932 24.662C25.1096 24.4456 25.2312 24.1522 25.2312 23.8461C25.2312 23.5401 25.1096 23.2466 24.8932 23.0302C24.6768 22.8138 24.3833 22.6923 24.0773 22.6923H15.3271L25.4379 12.5796C25.6166 12.401 25.7583 12.1889 25.855 11.9556C25.9517 11.7222 26.0014 11.472 26.0014 11.2194C26.0014 10.9668 25.9517 10.7167 25.855 10.4833C25.7583 10.2499 25.6166 10.0379 25.4379 9.8593ZM12.0578 22.6923H8.30775V18.9422L16.3848 10.8651L20.1349 14.6152L12.0578 22.6923ZM21.7696 12.9805L18.0195 9.23045L19.783 7.46695L23.5331 11.217L21.7696 12.9805Z" fill="#00213F"/>
</g>
</svg>
