<svg width="16" height="16" viewBox="0 0 16 16" fill="none" xmlns="http://www.w3.org/2000/svg">
<path id="Vector" d="M8 0C6.41775 0 4.87103 0.469192 3.55544 1.34824C2.23985 2.22729 1.21447 3.47672 0.608967 4.93853C0.00346629 6.40034 -0.15496 8.00887 0.153721 9.56072C0.462403 11.1126 1.22433 12.538 2.34315 13.6569C3.46197 14.7757 4.88743 15.5376 6.43928 15.8463C7.99113 16.155 9.59966 15.9965 11.0615 15.391C12.5233 14.7855 13.7727 13.7602 14.6518 12.4446C15.5308 11.129 16 9.58225 16 8C15.9976 5.87899 15.154 3.84553 13.6543 2.34574C12.1545 0.845963 10.121 0.00235276 8 0ZM6.44963 11.2593H9.55037C9.21433 12.2829 8.68836 13.2341 8 14.063C7.31164 13.2341 6.78567 12.2829 6.44963 11.2593ZM6.03037 9.48148C5.89111 8.49873 5.89111 7.50126 6.03037 6.51852H9.96963C10.1089 7.50126 10.1089 8.49873 9.96963 9.48148H6.03037ZM1.77778 8C1.77776 7.50072 1.8382 7.00327 1.95778 6.51852H4.23852C4.11802 7.5025 4.11802 8.4975 4.23852 9.48148H1.95778C1.8382 8.99673 1.77776 8.49928 1.77778 8ZM9.55037 4.74074H6.44963C6.78567 3.71706 7.31164 2.76589 8 1.93704C8.68836 2.76589 9.21433 3.71706 9.55037 4.74074ZM11.7615 6.51852H14.0422C14.2822 7.49159 14.2822 8.50841 14.0422 9.48148H11.7615C11.882 8.4975 11.882 7.5025 11.7615 6.51852ZM13.2978 4.74074H11.4074C11.1664 3.87115 10.8193 3.0345 10.3741 2.24963C11.5856 2.75306 12.6084 3.62448 13.2978 4.74074ZM5.62963 2.24963C5.18309 3.03432 4.8348 3.87098 4.5926 4.74074H2.70223C3.39259 3.62388 4.4167 2.7524 5.62963 2.24963ZM2.70223 11.2593H4.5926C4.8348 12.129 5.18309 12.9657 5.62963 13.7504C4.4167 13.2476 3.39259 12.3761 2.70223 11.2593ZM10.3741 13.7504C10.8193 12.9655 11.1664 12.1288 11.4074 11.2593H13.2978C12.6084 12.3755 11.5856 13.2469 10.3741 13.7504Z" fill="#00213F"/>
</svg>
