<svg width="24" height="22" viewBox="0 0 24 22" fill="none" xmlns="http://www.w3.org/2000/svg">
<path id="Vector" d="M21.7778 3H12.4444L9.48111 0.5C9.096 0.176409 8.62845 0.0010747 8.14778 0H2.22222C1.63285 0 1.06762 0.263392 0.650874 0.732233C0.234126 1.20107 0 1.83696 0 2.5V19.5C0 20.163 0.234126 20.7989 0.650874 21.2678C1.06762 21.7366 1.63285 22 2.22222 22H21.7778C22.3671 22 22.9324 21.7366 23.3491 21.2678C23.7659 20.7989 24 20.163 24 19.5V5.5C24 4.83696 23.7659 4.20107 23.3491 3.73223C22.9324 3.26339 22.3671 3 21.7778 3ZM2.66667 3H8L9.77778 4.5L8 6H2.66667V3ZM21.3333 19H2.66667V9H8.14778C8.62845 8.99893 9.096 8.82359 9.48111 8.5L12.4444 6H21.3333V19Z" fill="#00213F"/>
</svg>
