<svg width="16" height="16" viewBox="0 0 16 16" fill="none" xmlns="http://www.w3.org/2000/svg">
<path id="Vector" d="M14.8894 6.21911L8.73934 0.413648L8.72703 0.402109C8.44439 0.143454 8.07515 0 7.69202 0C7.30889 0 6.93965 0.143454 6.65701 0.402109L6.64393 0.413648L0.495391 6.21911C0.339466 6.36337 0.21499 6.53826 0.129749 6.73283C0.0445085 6.9274 0.000337567 7.13747 0 7.34989V14.4615C0 14.8695 0.162089 15.2609 0.450611 15.5494C0.739132 15.8379 1.13045 16 1.53848 16H13.8463C14.2544 16 14.6457 15.8379 14.9342 15.5494C15.2227 15.2609 15.3848 14.8695 15.3848 14.4615V7.34989C15.3845 7.13747 15.3403 6.9274 15.2551 6.73283C15.1698 6.53826 15.0453 6.36337 14.8894 6.21911ZM13.5386 14.1538H1.84618V7.48297L7.69241 1.96367L13.5386 7.48297V14.1538Z" fill="#00213F"/>
</svg>
