<svg width="16" height="16" viewBox="0 0 16 16" fill="none" xmlns="http://www.w3.org/2000/svg">
<path d="M14.4 0H1.6C1.17565 0 0.768687 0.168571 0.468629 0.468629C0.168571 0.768687 0 1.17565 0 1.6V14.4C0 14.8243 0.168571 15.2313 0.468629 15.5314C0.768687 15.8314 1.17565 16 1.6 16H14.4C14.8243 16 15.2313 15.8314 15.5314 15.5314C15.8314 15.2313 16 14.8243 16 14.4V1.6C16 1.17565 15.8314 0.768687 15.5314 0.468629C15.2313 0.168571 14.8243 0 14.4 0ZM14.08 1.92V7.0176L12.6512 5.5888C12.3512 5.28885 11.9443 5.12034 11.52 5.12034C11.0957 5.12034 10.6888 5.28885 10.3888 5.5888L1.92 14.0576V1.92H14.08ZM4.6128 14.08L11.52 7.1728L14.08 9.7328V14.08H4.6128ZM3.84 5.44C3.84 5.12355 3.93384 4.81421 4.10965 4.55109C4.28546 4.28797 4.53534 4.08289 4.82771 3.96179C5.12007 3.84069 5.44177 3.80901 5.75214 3.87074C6.06251 3.93248 6.34761 4.08487 6.57137 4.30863C6.79513 4.53239 6.94752 4.81749 7.00926 5.12786C7.07099 5.43822 7.03931 5.75993 6.91821 6.05229C6.79711 6.34466 6.59203 6.59454 6.32891 6.77035C6.06579 6.94616 5.75645 7.04 5.44 7.04C5.01565 7.04 4.60869 6.87143 4.30863 6.57137C4.00857 6.27131 3.84 5.86435 3.84 5.44Z" fill="#00213F"/>
</svg>
