<svg width="100" height="100" viewBox="0 0 100 100" fill="none" xmlns="http://www.w3.org/2000/svg">
<g id="Group 4032">
<rect id="Rectangle 18" width="100" height="100" rx="15" fill="#ECECEC"/>
<path id="Vector" d="M70.2031 24.5H39.7344C38.3876 24.5 37.0959 25.035 36.1436 25.9873C35.1913 26.9397 34.6562 28.2313 34.6562 29.5781V32.625H29.5781C28.2313 32.625 26.9397 33.16 25.9873 34.1123C25.035 35.0647 24.5 36.3563 24.5 37.7031V70.2031C24.5 71.5499 25.035 72.8416 25.9873 73.7939C26.9397 74.7462 28.2313 75.2812 29.5781 75.2812H62.0781C63.4249 75.2812 64.7166 74.7462 65.6689 73.7939C66.6212 72.8416 67.1562 71.5499 67.1562 70.2031V65.125H70.2031C71.5499 65.125 72.8416 64.59 73.7939 63.6377C74.7462 62.6853 75.2812 61.3937 75.2812 60.0469V29.5781C75.2812 28.2313 74.7462 26.9397 73.7939 25.9873C72.8416 25.035 71.5499 24.5 70.2031 24.5ZM40.75 30.5938H69.1875V45.757L66.684 43.2535C65.7317 42.3015 64.4403 41.7667 63.0937 41.7667C61.7472 41.7667 60.4558 42.3015 59.5035 43.2535L43.7258 59.0312H40.75V30.5938ZM61.0625 69.1875H30.5937V38.7188H34.6562V60.0469C34.6562 61.3937 35.1913 62.6853 36.1436 63.6377C37.0959 64.59 38.3876 65.125 39.7344 65.125H61.0625V69.1875ZM52.3434 59.0312L63.0937 48.2809L69.1875 54.3746V59.0312H52.3434ZM44.8125 39.7344C44.8125 38.73 45.1103 37.7482 45.6683 36.9131C46.2263 36.078 47.0194 35.4271 47.9473 35.0428C48.8752 34.6584 49.8963 34.5579 50.8813 34.7538C51.8664 34.9498 52.7712 35.4334 53.4814 36.1436C54.1916 36.8538 54.6752 37.7586 54.8712 38.7437C55.0671 39.7287 54.9665 40.7498 54.5822 41.6777C54.1978 42.6056 53.547 43.3987 52.7119 43.9567C51.8768 44.5147 50.895 44.8125 49.8906 44.8125C48.5438 44.8125 47.2522 44.2775 46.2998 43.3252C45.3475 42.3728 44.8125 41.0812 44.8125 39.7344Z" fill="white"/>
</g>
</svg>
