<svg width="20" height="18" viewBox="0 0 20 18" fill="none" xmlns="http://www.w3.org/2000/svg">
<path id="Vector" d="M20 8.99901C20 9.31726 19.8736 9.62247 19.6485 9.8475C19.4235 10.0725 19.1183 10.199 18.8001 10.199H4.10075L9.25251 15.3497C9.47793 15.5751 9.60457 15.8809 9.60457 16.1997C9.60457 16.5185 9.47793 16.8242 9.25251 17.0496C9.02708 17.2751 8.72134 17.4017 8.40255 17.4017C8.08375 17.4017 7.77801 17.2751 7.55259 17.0496L0.35293 9.84997C0.241063 9.73849 0.152303 9.60603 0.0917391 9.46017C0.0311755 9.31432 0 9.15794 0 9.00001C0 8.84208 0.0311755 8.68571 0.0917391 8.53985C0.152303 8.394 0.241063 8.26153 0.35293 8.15005L7.55259 0.950392C7.66421 0.838774 7.79672 0.750233 7.94255 0.689826C8.08839 0.629419 8.2447 0.598328 8.40255 0.598328C8.5604 0.598328 8.71671 0.629419 8.86254 0.689826C9.00838 0.750233 9.14089 0.838774 9.25251 0.950392C9.36413 1.06201 9.45267 1.19452 9.51307 1.34036C9.57348 1.48619 9.60457 1.6425 9.60457 1.80035C9.60457 1.9582 9.57348 2.11451 9.51307 2.26035C9.45267 2.40618 9.36413 2.53869 9.25251 2.65031L4.10075 7.79907H18.8001C19.1183 7.79907 19.4235 7.92549 19.6485 8.15052C19.8736 8.37556 20 8.68077 20 8.99901Z" fill="#00213F"/>
</svg>
