<svg width="14" height="16" viewBox="0 0 14 16" fill="none" xmlns="http://www.w3.org/2000/svg">
<path d="M6.99998 11.0345C7.95076 11.0334 8.86229 10.6552 9.5346 9.9829C10.2069 9.31059 10.5851 8.39906 10.5862 7.44828V3.58621C10.5862 2.63509 10.2084 1.72292 9.53581 1.05038C8.86327 0.377831 7.9511 0 6.99998 0C6.04886 0 5.13669 0.377831 4.46415 1.05038C3.7916 1.72292 3.41377 2.63509 3.41377 3.58621V7.44828C3.41487 8.39906 3.79305 9.31059 4.46536 9.9829C5.13766 10.6552 6.04919 11.0334 6.99998 11.0345ZM5.06894 3.58621C5.06894 3.07406 5.27239 2.5829 5.63453 2.22076C5.99667 1.85862 6.48784 1.65517 6.99998 1.65517C7.51212 1.65517 8.00329 1.85862 8.36543 2.22076C8.72757 2.5829 8.93101 3.07406 8.93101 3.58621V7.44828C8.93101 7.96042 8.72757 8.45158 8.36543 8.81372C8.00329 9.17586 7.51212 9.37931 6.99998 9.37931C6.48784 9.37931 5.99667 9.17586 5.63453 8.81372C5.27239 8.45158 5.06894 7.96042 5.06894 7.44828V3.58621ZM7.82757 13.7393V15.1724C7.82757 15.3919 7.74037 15.6024 7.58517 15.7576C7.42997 15.9128 7.21947 16 6.99998 16C6.78049 16 6.56999 15.9128 6.41479 15.7576C6.25958 15.6024 6.17239 15.3919 6.17239 15.1724V13.7393C4.6469 13.5366 3.24682 12.7871 2.23213 11.6301C1.21745 10.4731 0.657101 8.98718 0.655151 7.44828C0.655151 7.22879 0.742343 7.01829 0.897546 6.86308C1.05275 6.70788 1.26325 6.62069 1.48274 6.62069C1.70223 6.62069 1.91273 6.70788 2.06793 6.86308C2.22313 7.01829 2.31032 7.22879 2.31032 7.44828C2.31032 8.69205 2.80441 9.88488 3.68389 10.7644C4.56337 11.6438 5.75621 12.1379 6.99998 12.1379C8.24375 12.1379 9.43659 11.6438 10.3161 10.7644C11.1955 9.88488 11.6896 8.69205 11.6896 7.44828C11.6896 7.22879 11.7768 7.01829 11.932 6.86308C12.0872 6.70788 12.2977 6.62069 12.5172 6.62069C12.7367 6.62069 12.9472 6.70788 13.1024 6.86308C13.2576 7.01829 13.3448 7.22879 13.3448 7.44828C13.3429 8.98718 12.7825 10.4731 11.7678 11.6301C10.7531 12.7871 9.35306 13.5366 7.82757 13.7393Z" fill="#00213F"/>
</svg>
