<svg width="102" height="102" viewBox="0 0 102 102" fill="none" xmlns="http://www.w3.org/2000/svg">
<path d="M91.4062 0H30.4688C27.7751 0 25.1919 1.07003 23.2872 2.9747C21.3825 4.87936 20.3125 7.46265 20.3125 10.1562V16.25H10.1562C7.46265 16.25 4.87936 17.32 2.9747 19.2247C1.07003 21.1294 0 23.7126 0 26.4062V91.4062C0 94.0999 1.07003 96.6831 2.9747 98.5878C4.87936 100.492 7.46265 101.562 10.1562 101.562H75.1562C77.8499 101.562 80.4331 100.492 82.3378 98.5878C84.2425 96.6831 85.3125 94.0999 85.3125 91.4062V81.25H91.4062C94.0999 81.25 96.6831 80.18 98.5878 78.2753C100.492 76.3706 101.562 73.7874 101.562 71.0938V10.1562C101.562 7.46265 100.492 4.87936 98.5878 2.9747C96.6831 1.07003 94.0999 0 91.4062 0ZM32.5 12.1875H89.375V42.5141L84.368 37.507C82.4634 35.603 79.8806 34.5334 77.1875 34.5334C74.4944 34.5334 71.9116 35.603 70.007 37.507L38.4516 69.0625H32.5V12.1875ZM73.125 89.375H12.1875V28.4375H20.3125V71.0938C20.3125 73.7874 21.3825 76.3706 23.2872 78.2753C25.1919 80.18 27.7751 81.25 30.4688 81.25H73.125V89.375ZM55.6867 69.0625L77.1875 47.5617L89.375 59.7492V69.0625H55.6867ZM40.625 30.4688C40.625 28.46 41.2207 26.4964 42.3366 24.8262C43.4526 23.1561 45.0388 21.8543 46.8946 21.0856C48.7504 20.3169 50.7925 20.1158 52.7626 20.5076C54.7328 20.8995 56.5424 21.8668 57.9628 23.2872C59.3832 24.7076 60.3505 26.5172 60.7424 28.4874C61.1342 30.4575 60.9331 32.4996 60.1644 34.3554C59.3957 36.2112 58.0939 37.7974 56.4238 38.9134C54.7536 40.0293 52.79 40.625 50.7812 40.625C48.0876 40.625 45.5044 39.555 43.5997 37.6503C41.695 35.7456 40.625 33.1624 40.625 30.4688Z" fill="white"/>
</svg>
