<svg width="24" height="20" viewBox="0 0 24 20" fill="none" xmlns="http://www.w3.org/2000/svg">
<path d="M21.7778 2.66667H12.4444L9.48111 0.444444C9.096 0.156808 8.62845 0.000955286 8.14778 0H2.22222C1.63285 0 1.06762 0.234126 0.650874 0.650874C0.234126 1.06762 0 1.63285 0 2.22222V17.3333C0 17.9227 0.234126 18.4879 0.650874 18.9047C1.06762 19.3214 1.63285 19.5556 2.22222 19.5556H21.7778C22.3671 19.5556 22.9324 19.3214 23.3491 18.9047C23.7659 18.4879 24 17.9227 24 17.3333V4.88889C24 4.29952 23.7659 3.73429 23.3491 3.31754C22.9324 2.90079 22.3671 2.66667 21.7778 2.66667ZM2.66667 2.66667H8L9.77778 4L8 5.33333H2.66667V2.66667ZM21.3333 16.8889H2.66667V8H8.14778C8.62845 7.99904 9.096 7.84319 9.48111 7.55556L12.4444 5.33333H21.3333V16.8889ZM13.3333 8.88889V10.2222H14.6667C15.0203 10.2222 15.3594 10.3627 15.6095 10.6127C15.8595 10.8628 16 11.2019 16 11.5556C16 11.9092 15.8595 12.2483 15.6095 12.4984C15.3594 12.7484 15.0203 12.8889 14.6667 12.8889H13.3333V14.2222C13.3333 14.5758 13.1929 14.915 12.9428 15.165C12.6928 15.4151 12.3536 15.5556 12 15.5556C11.6464 15.5556 11.3072 15.4151 11.0572 15.165C10.8071 14.915 10.6667 14.5758 10.6667 14.2222V12.8889H9.33333C8.97971 12.8889 8.64057 12.7484 8.39052 12.4984C8.14048 12.2483 8 11.9092 8 11.5556C8 11.2019 8.14048 10.8628 8.39052 10.6127C8.64057 10.3627 8.97971 10.2222 9.33333 10.2222H10.6667V8.88889C10.6667 8.53527 10.8071 8.19613 11.0572 7.94608C11.3072 7.69603 11.6464 7.55556 12 7.55556C12.3536 7.55556 12.6928 7.69603 12.9428 7.94608C13.1929 8.19613 13.3333 8.53527 13.3333 8.88889Z" fill="#00213F"/>
</svg>
