<svg width="30" height="22" viewBox="0 0 30 22" fill="none" xmlns="http://www.w3.org/2000/svg">
<path d="M2.67339 1C1.75649 1 1 1.75649 1 2.67339V15.4556C1 16.3725 1.75649 17.129 2.67339 17.129H15.1935C15.279 17.1302 15.3639 17.1144 15.4433 17.0826C15.5226 17.0507 15.5948 17.0034 15.6557 16.9433C15.7166 16.8833 15.7649 16.8118 15.7979 16.7329C15.8309 16.654 15.8479 16.5694 15.8479 16.4839C15.8479 16.3984 15.8309 16.3137 15.7979 16.2348C15.7649 16.156 15.7166 16.0844 15.6557 16.0244C15.5948 15.9644 15.5226 15.9171 15.4433 15.8852C15.3639 15.8533 15.279 15.8375 15.1935 15.8387H2.67339C2.4564 15.8387 2.29032 15.6726 2.29032 15.4556V11.9375L9.37702 6.95766L15.7681 11.8266C15.8837 11.9168 16.0266 11.9649 16.1731 11.9631C16.3197 11.9613 16.4613 11.9096 16.5746 11.8165L19.6694 9.28629L21.7661 11.3831C20.1814 12.2587 19.1048 13.9395 19.1048 15.869C19.1048 18.6943 21.4146 21 24.246 21C27.0774 21 29.3871 18.6943 29.3871 15.869C29.3871 13.0435 27.0774 10.7379 24.246 10.7379C24.0196 10.7379 23.7994 10.7598 23.5806 10.7883V2.67339C23.5806 1.75649 22.8242 1 21.9073 1H2.67339ZM2.67339 2.29032H11.9778C12.1164 4.44616 13.9487 6.16129 16.1613 6.16129C18.3739 6.16129 20.2062 4.44616 20.3448 2.29032H21.9073C22.1242 2.29032 22.2903 2.4564 22.2903 2.67339V10.0827L20.1633 7.95565C20.0497 7.84232 19.8979 7.7754 19.7376 7.76795C19.5773 7.76049 19.42 7.81304 19.2964 7.91532L16.1411 10.496L9.78024 5.64718C9.71117 5.59285 9.63173 5.5532 9.54679 5.53067C9.46186 5.50813 9.37321 5.50318 9.28629 5.51613C9.18824 5.53166 9.0951 5.56961 9.01411 5.62702L2.29032 10.3548V2.67339C2.29032 2.4564 2.4564 2.29032 2.67339 2.29032ZM13.2681 2.29032H19.0544C18.9213 3.73518 17.6884 4.87097 16.1613 4.87097C14.6342 4.87097 13.4013 3.73518 13.2681 2.29032ZM24.246 12.0282C26.3793 12.0282 28.0968 13.7401 28.0968 15.869C28.0968 17.9978 26.3793 19.7097 24.246 19.7097C22.1126 19.7097 20.3952 17.9978 20.3952 15.869C20.3952 13.7401 22.1126 12.0282 24.246 12.0282ZM24.1552 13.8931C23.9949 13.9108 23.847 13.9878 23.7406 14.1091C23.6342 14.2304 23.5772 14.3871 23.5806 14.5484V15.1935H22.9355C22.9153 15.1926 22.8952 15.1926 22.875 15.1935C22.7903 15.1975 22.7071 15.2181 22.6304 15.2542C22.5536 15.2903 22.4847 15.3411 22.4276 15.4039C22.3705 15.4666 22.3263 15.5399 22.2975 15.6197C22.2687 15.6995 22.256 15.7842 22.26 15.869C22.2639 15.9537 22.2845 16.0368 22.3207 16.1136C22.3567 16.1903 22.4076 16.2592 22.4703 16.3163C22.5331 16.3734 22.6064 16.4176 22.6863 16.4464C22.7661 16.4751 22.8508 16.4879 22.9355 16.4839H23.5806V17.129C23.5794 17.2145 23.5952 17.2994 23.6271 17.3787C23.659 17.4581 23.7063 17.5303 23.7664 17.5912C23.8264 17.652 23.8979 17.7004 23.9768 17.7334C24.0557 17.7664 24.1403 17.7834 24.2258 17.7834C24.3113 17.7834 24.396 17.7664 24.4748 17.7334C24.5537 17.7004 24.6252 17.652 24.6853 17.5912C24.7453 17.5303 24.7926 17.4581 24.8245 17.3787C24.8564 17.2994 24.8722 17.2145 24.871 17.129V16.4839H25.5161C25.6016 16.4851 25.6865 16.4693 25.7658 16.4374C25.8452 16.4055 25.9174 16.3582 25.9783 16.2982C26.0391 16.2381 26.0875 16.1666 26.1205 16.0877C26.1535 16.0089 26.1705 15.9242 26.1705 15.8387C26.1705 15.7532 26.1535 15.6686 26.1205 15.5897C26.0875 15.5108 26.0391 15.4393 25.9783 15.3793C25.9174 15.3192 25.8452 15.2719 25.7658 15.24C25.6865 15.2081 25.6016 15.1923 25.5161 15.1935H24.871V14.5484C24.8729 14.4565 24.8553 14.3653 24.8192 14.2809C24.7831 14.1964 24.7293 14.1206 24.6616 14.0586C24.5938 13.9966 24.5136 13.9497 24.4263 13.9212C24.339 13.8926 24.2466 13.8831 24.1552 13.8931ZM17.4516 15.8387C17.0953 15.8387 16.8065 16.1276 16.8065 16.4839C16.8065 16.8402 17.0953 17.129 17.4516 17.129C17.8079 17.129 18.0968 16.8402 18.0968 16.4839C18.0968 16.1276 17.8079 15.8387 17.4516 15.8387Z" fill="#00213F" stroke="#00213F" stroke-width="0.7"/>
</svg>
