<svg width="24" height="24" viewBox="0 0 24 24" fill="none" xmlns="http://www.w3.org/2000/svg">
  <path
    d="M16.6667 13.1667V14.3333H17.8333C18.1428 14.3333 18.4395 14.4563 18.6583 14.675C18.8771 14.8938 19 15.1906 19 15.5C19 15.8094 18.8771 16.1062 18.6583 16.325C18.4395 16.5438 18.1428 16.6667 17.8333 16.6667H16.6667V17.8333C16.6667 18.1428 16.5437 18.4395 16.325 18.6583C16.1062 18.8771 15.8094 19 15.5 19C15.1906 19 14.8938 18.8771 14.675 18.6583C14.4562 18.4395 14.3333 18.1428 14.3333 17.8333V16.6667H13.1667C12.8572 16.6667 12.5605 16.5438 12.3417 16.325C12.1229 16.1062 12 15.8094 12 15.5C12 15.1906 12.1229 14.8938 12.3417 14.675C12.5605 14.4563 12.8572 14.3333 13.1667 14.3333H14.3333V13.1667C14.3333 12.8572 14.4562 12.5605 14.675 12.3417C14.8938 12.1229 15.1906 12 15.5 12C15.8094 12 16.1062 12.1229 16.325 12.3417C16.5437 12.5605 16.6667 12.8572 16.6667 13.1667Z"
    fill="#00213F" />
  <path
    d="M23.1456 6.83521H7.76651C7.53991 6.83521 7.32259 6.92522 7.16236 7.08545C7.00213 7.24568 6.91211 7.463 6.91211 7.6896V23.0687C6.91211 23.2953 7.00213 23.5127 7.16236 23.6729C7.32259 23.8331 7.53991 23.9231 7.76651 23.9231H23.1456C23.3722 23.9231 23.5896 23.8331 23.7498 23.6729C23.91 23.5127 24 23.2953 24 23.0687V7.6896C24 7.463 23.91 7.24568 23.7498 7.08545C23.5896 6.92522 23.3722 6.83521 23.1456 6.83521ZM22.2912 22.2143H8.6209V8.544H22.2912V22.2143Z"
    fill="#00213F" />
  <path
    d="M22.2914 4.272C22.2914 4.0454 22.2013 3.82808 22.0411 3.66785C21.8809 3.50762 21.6636 3.4176 21.437 3.4176H4.34903C4.12243 3.4176 3.90511 3.50762 3.74488 3.66785C3.58465 3.82808 3.49463 4.0454 3.49463 4.272V17.9423C3.49463 18.1689 3.58465 18.3863 3.74488 18.5465C3.90511 18.7067 4.12243 18.7967 4.34903 18.7967C4.57563 18.7967 4.79294 18.7067 4.95317 18.5465C5.11341 18.3863 5.20342 18.1689 5.20342 17.9423V5.1264H21.437C21.6636 5.1264 21.8809 5.03638 22.0411 4.87615C22.2013 4.71592 22.2914 4.4986 22.2914 4.272Z"
    fill="#00213F" />
  <path
    d="M18.7967 0.854397C18.7967 0.627797 18.7067 0.410477 18.5465 0.250247C18.3862 0.0900165 18.1689 0 17.9423 0H0.854397C0.627797 0 0.410477 0.0900165 0.250247 0.250247C0.0900166 0.410477 0 0.627797 0 0.854397V14.5247C0 14.7513 0.0900166 14.9687 0.250247 15.1289C0.410477 15.2891 0.627797 15.3791 0.854397 15.3791C1.081 15.3791 1.29832 15.2891 1.45855 15.1289C1.61878 14.9687 1.70879 14.7513 1.70879 14.5247V1.70879H17.9423C18.1689 1.70879 18.3862 1.61878 18.5465 1.45855C18.7067 1.29832 18.7967 1.081 18.7967 0.854397Z"
    fill="#00213F" />
</svg>
