<svg width="12" height="12" viewBox="0 0 12 12" fill="none" xmlns="http://www.w3.org/2000/svg">
<path id="Vector" d="M11.9211 10.7695C11.1594 9.43258 9.96994 8.3909 8.54428 7.81211C9.25325 7.28039 9.77694 6.53907 10.0412 5.69317C10.3054 4.84727 10.2968 3.93967 10.0166 3.09893C9.73632 2.2582 9.19865 1.52695 8.47972 1.00878C7.76079 0.490599 6.89704 0.211761 6.01083 0.211761C5.12462 0.211761 4.26087 0.490599 3.54194 1.00878C2.823 1.52695 2.28534 2.2582 2.00509 3.09893C1.72485 3.93967 1.71623 4.84727 1.98047 5.69317C2.24471 6.53907 2.76841 7.28039 3.47738 7.81211C2.05171 8.3909 0.86228 9.43258 0.100554 10.7695C0.0533551 10.8454 0.021897 10.93 0.00805019 11.0183C-0.00579658 11.1066 -0.00174936 11.1967 0.0199513 11.2834C0.041652 11.3701 0.0805631 11.4516 0.134371 11.523C0.18818 11.5943 0.255787 11.6541 0.333173 11.6988C0.410559 11.7435 0.496145 11.7722 0.584843 11.7832C0.673541 11.7942 0.763539 11.7872 0.849488 11.7627C0.935437 11.7382 1.01558 11.6967 1.08516 11.6406C1.15473 11.5845 1.21232 11.515 1.2545 11.4362C2.26121 9.69609 4.03907 8.65826 6.01083 8.65826C7.98259 8.65826 9.76045 9.69664 10.7672 11.4362C10.8586 11.5831 11.0035 11.6888 11.1714 11.7308C11.3393 11.7728 11.517 11.7479 11.6668 11.6614C11.8167 11.5748 11.927 11.4333 11.9745 11.2669C12.0219 11.1004 12.0028 10.9221 11.9211 10.7695ZM3.12181 4.43585C3.12181 3.86445 3.29124 3.30589 3.60869 2.83079C3.92614 2.35569 4.37735 1.9854 4.90525 1.76674C5.43315 1.54807 6.01403 1.49086 6.57445 1.60233C7.13486 1.71381 7.64964 1.98896 8.05367 2.393C8.45771 2.79704 8.73286 3.31181 8.84434 3.87223C8.95581 4.43264 8.8986 5.01353 8.67994 5.54143C8.46127 6.06933 8.09098 6.52053 7.61588 6.83798C7.14078 7.15543 6.58222 7.32487 6.01083 7.32487C5.24488 7.32399 4.51056 7.01932 3.96895 6.47772C3.42735 5.93611 3.12269 5.20179 3.12181 4.43585Z" fill="#001F4B"/>
</svg>
