<svg width="14" height="16" viewBox="0 0 14 16" fill="none" xmlns="http://www.w3.org/2000/svg">
<path id="Vector" d="M13.0787 6.79905L13.0788 6.79912C13.2849 6.92456 13.4552 7.10092 13.5734 7.31124C13.6916 7.52156 13.7537 7.75875 13.7537 8C13.7537 8.24125 13.6916 8.47845 13.5734 8.68876C13.4552 8.89908 13.2849 9.07544 13.0788 9.20088L13.0787 9.20095L2.40449 15.7301C2.40448 15.7301 2.40447 15.7301 2.40446 15.7301C2.19006 15.8608 1.94482 15.9323 1.69377 15.9372C1.4427 15.9422 1.19482 15.8804 0.975417 15.7583C0.756014 15.6361 0.572948 15.458 0.444905 15.242C0.3169 15.026 0.248466 14.78 0.246582 14.5289V1.47106C0.248466 1.22004 0.3169 0.973998 0.444905 0.758049C0.572949 0.542034 0.756014 0.363861 0.975417 0.241714C1.19482 0.119567 1.4427 0.0578203 1.69377 0.0627765C1.9448 0.0677321 2.19002 0.139197 2.40441 0.269876C2.40444 0.269893 2.40447 0.269909 2.40449 0.269925L13.0787 6.79905Z" fill="#00213F" stroke="#ECECEC" stroke-width="0.125"/>
</svg>
