<svg width="14" height="16" viewBox="0 0 14 16" fill="none" xmlns="http://www.w3.org/2000/svg">
<path id="Vector" d="M7.0001 11.0345C7.95089 11.0334 8.86242 10.6552 9.53472 9.9829C10.207 9.31059 10.5852 8.39906 10.5863 7.44828V3.58621C10.5863 2.63509 10.2085 1.72292 9.53593 1.05038C8.86339 0.377831 7.95122 0 7.0001 0C6.04898 0 5.13681 0.377831 4.46427 1.05038C3.79173 1.72292 3.41389 2.63509 3.41389 3.58621V7.44828C3.41499 8.39906 3.79317 9.31059 4.46548 9.9829C5.13779 10.6552 6.04932 11.0334 7.0001 11.0345ZM5.06907 3.58621C5.06907 3.07406 5.27251 2.5829 5.63465 2.22076C5.99679 1.85862 6.48796 1.65517 7.0001 1.65517C7.51224 1.65517 8.00341 1.85862 8.36555 2.22076C8.72769 2.5829 8.93114 3.07406 8.93114 3.58621V7.44828C8.93114 7.96042 8.72769 8.45158 8.36555 8.81372C8.00341 9.17586 7.51224 9.37931 7.0001 9.37931C6.48796 9.37931 5.99679 9.17586 5.63465 8.81372C5.27251 8.45158 5.06907 7.96042 5.06907 7.44828V3.58621ZM7.82769 13.7393V15.1724C7.82769 15.3919 7.74049 15.6024 7.58529 15.7576C7.43009 15.9128 7.21959 16 7.0001 16C6.78061 16 6.57011 15.9128 6.41491 15.7576C6.25971 15.6024 6.17251 15.3919 6.17251 15.1724V13.7393C4.64702 13.5366 3.24694 12.7871 2.23226 11.6301C1.21757 10.4731 0.657223 8.98718 0.655273 7.44828C0.655273 7.22879 0.742465 7.01829 0.897668 6.86308C1.05287 6.70788 1.26337 6.62069 1.48286 6.62069C1.70235 6.62069 1.91285 6.70788 2.06805 6.86308C2.22325 7.01829 2.31045 7.22879 2.31045 7.44828C2.31045 8.69205 2.80453 9.88488 3.68401 10.7644C4.5635 11.6438 5.75633 12.1379 7.0001 12.1379C8.24388 12.1379 9.43671 11.6438 10.3162 10.7644C11.1957 9.88488 11.6898 8.69205 11.6898 7.44828C11.6898 7.22879 11.7769 7.01829 11.9322 6.86308C12.0874 6.70788 12.2979 6.62069 12.5173 6.62069C12.7368 6.62069 12.9473 6.70788 13.1025 6.86308C13.2577 7.01829 13.3449 7.22879 13.3449 7.44828C13.343 8.98718 12.7826 10.4731 11.7679 11.6301C10.7533 12.7871 9.35318 13.5366 7.82769 13.7393Z" fill="#00213F"/>
</svg>
