<svg width="8" height="13" viewBox="0 0 8 13" fill="none" xmlns="http://www.w3.org/2000/svg">
<path id="Vector" d="M7.28255 7.28255L2.28255 12.2826C2.14165 12.4234 1.95056 12.5026 1.7513 12.5026C1.55204 12.5026 1.36095 12.4234 1.22005 12.2826C1.07915 12.1417 1 11.9506 1 11.7513C1 11.552 1.07915 11.3609 1.22005 11.2201L5.68943 6.75193L1.2213 2.28255C1.15154 2.21279 1.0962 2.12996 1.05844 2.03881C1.02068 1.94766 1.00125 1.84996 1.00125 1.7513C1.00125 1.65264 1.02068 1.55494 1.05844 1.46379C1.0962 1.37264 1.15154 1.28982 1.2213 1.22005C1.29107 1.15029 1.37389 1.09495 1.46504 1.05719C1.55619 1.01943 1.65389 1 1.75255 1C1.85121 1 1.94891 1.01943 2.04006 1.05719C2.13121 1.09495 2.21404 1.15029 2.2838 1.22005L7.2838 6.22005C7.35364 6.28981 7.40902 6.37267 7.44677 6.46388C7.48451 6.55509 7.50388 6.65285 7.50377 6.75156C7.50365 6.85027 7.48405 6.94799 7.44609 7.03911C7.40813 7.13023 7.35255 7.21296 7.28255 7.28255Z" fill="#00213F" stroke="#00213F" stroke-width="0.7"/>
</svg>
