<svg width="16" height="16" viewBox="0 0 16 16" fill="none" xmlns="http://www.w3.org/2000/svg">
  <path
    d="M15.4303 4.55688H5.17751C5.02644 4.55688 4.88156 4.6169 4.77474 4.72372C4.66792 4.83054 4.60791 4.97542 4.60791 5.12648V15.3792C4.60791 15.5303 4.66792 15.6752 4.77474 15.782C4.88156 15.8888 5.02644 15.9488 5.17751 15.9488H15.4303C15.5813 15.9488 15.7262 15.8888 15.833 15.782C15.9399 15.6752 15.9999 15.5303 15.9999 15.3792V5.12648C15.9999 4.97542 15.9399 4.83054 15.833 4.72372C15.7262 4.6169 15.5813 4.55688 15.4303 4.55688ZM14.8607 14.8096H5.74711V5.69608H14.8607V14.8096Z"
    fill="#00213F" />
  <path
    d="M14.8607 2.84792C14.8607 2.69685 14.8007 2.55197 14.6939 2.44515C14.5871 2.33833 14.4422 2.27832 14.2911 2.27832H2.89919C2.74812 2.27832 2.60324 2.33833 2.49642 2.44515C2.3896 2.55197 2.32959 2.69685 2.32959 2.84792V11.9615C2.32959 12.1125 2.3896 12.2574 2.49642 12.3642C2.60324 12.4711 2.74812 12.5311 2.89919 12.5311C3.05025 12.5311 3.19513 12.4711 3.30195 12.3642C3.40877 12.2574 3.46879 12.1125 3.46879 11.9615V3.41752H14.2911C14.4422 3.41752 14.5871 3.3575 14.6939 3.25068C14.8007 3.14386 14.8607 2.99898 14.8607 2.84792Z"
    fill="#00213F" />
  <path
    d="M12.5311 0.569598C12.5311 0.418531 12.4711 0.273652 12.3643 0.166831C12.2575 0.060011 12.1126 0 11.9616 0H0.569598C0.418531 0 0.273652 0.060011 0.166831 0.166831C0.0600111 0.273652 0 0.418531 0 0.569598V9.68316C0 9.83423 0.0600111 9.97911 0.166831 10.0859C0.273652 10.1927 0.418531 10.2528 0.569598 10.2528C0.720665 10.2528 0.865544 10.1927 0.972364 10.0859C1.07918 9.97911 1.1392 9.83423 1.1392 9.68316V1.1392H11.9616C12.1126 1.1392 12.2575 1.07918 12.3643 0.972364C12.4711 0.865544 12.5311 0.720664 12.5311 0.569598Z"
    fill="#00213F" />
</svg>
