<svg width="16" height="16" viewBox="0 0 16 16" fill="none" xmlns="http://www.w3.org/2000/svg">
<path id="Vector" d="M7.99793 4.17162C7.24075 4.17162 6.50057 4.39615 5.871 4.81682C5.24143 5.23749 4.75073 5.8354 4.46097 6.53494C4.17121 7.23449 4.0954 8.00425 4.24311 8.74688C4.39083 9.48951 4.75545 10.1717 5.29086 10.7071C5.82627 11.2425 6.50842 11.6071 7.25105 11.7548C7.99368 11.9025 8.76344 11.8267 9.46299 11.537C10.1625 11.2472 10.7604 10.7565 11.1811 10.1269C11.6018 9.49736 11.8263 8.75718 11.8263 8C11.8251 6.98501 11.4214 6.01193 10.7037 5.29422C9.986 4.57651 9.01292 4.17279 7.99793 4.17162ZM7.99793 10.0614C7.59022 10.0614 7.19166 9.94053 6.85266 9.71402C6.51366 9.48751 6.24944 9.16555 6.09341 8.78888C5.93739 8.4122 5.89657 7.99771 5.97611 7.59783C6.05565 7.19795 6.25198 6.83064 6.54028 6.54235C6.82857 6.25405 7.19589 6.05772 7.59576 5.97818C7.99564 5.89863 8.41013 5.93946 8.78681 6.09548C9.16348 6.25151 9.48544 6.51573 9.71195 6.85473C9.93846 7.19373 10.0594 7.59229 10.0594 8C10.0594 8.54673 9.84218 9.07106 9.45558 9.45765C9.06899 9.84425 8.54466 10.0614 7.99793 10.0614ZM14.7712 8.05816V7.94184L15.8019 6.65271C15.8885 6.54469 15.9484 6.41786 15.9769 6.28243C16.0054 6.14701 16.0017 6.00678 15.9661 5.87304C15.7801 5.1715 15.5021 4.49764 15.1393 3.86903C15.0694 3.74916 14.9723 3.64744 14.8558 3.5721C14.7393 3.49676 14.6066 3.44993 14.4686 3.4354L12.8283 3.25134L12.7466 3.16962L12.5625 1.52857C12.5479 1.39071 12.501 1.25822 12.4257 1.14183C12.3503 1.02545 12.2487 0.92842 12.1289 0.858605C11.5002 0.49468 10.8261 0.215675 10.1242 0.0288777C9.9903 -0.00621191 9.85008 -0.00936972 9.71478 0.0196588C9.57949 0.0486872 9.4529 0.10909 9.34523 0.196001L8.05609 1.22672H7.93977L6.65064 0.196001C6.54262 0.109481 6.41579 0.0495468 6.28036 0.0210294C6.14494 -0.00748787 6.00471 -0.00379075 5.87097 0.0318227C5.16924 0.21898 4.49538 0.498227 3.86696 0.862286C3.74756 0.931813 3.64613 1.02838 3.57081 1.14422C3.4955 1.26007 3.44841 1.39196 3.43333 1.52931L3.24927 3.16962L3.16755 3.25134L1.5265 3.4354C1.38864 3.45004 1.25615 3.49692 1.13976 3.57226C1.02338 3.64759 0.92635 3.74926 0.856535 3.86903C0.493632 4.49785 0.21562 5.17196 0.0297526 5.87378C-0.00573931 6.0074 -0.00937399 6.14749 0.019141 6.28278C0.047656 6.41807 0.107525 6.54477 0.193931 6.65271L1.22465 7.94184V8.05816L0.193931 9.34729C0.107411 9.45531 0.0474766 9.58214 0.0189593 9.71757C-0.00955802 9.85299 -0.00586089 9.99322 0.0297526 10.127C0.217142 10.8287 0.496638 11.5026 0.860952 12.131C0.930407 12.2503 1.02686 12.3517 1.14256 12.427C1.25827 12.5023 1.39002 12.5494 1.52724 12.5646L3.16755 12.7472L3.24927 12.8289L3.43333 14.4714C3.44797 14.6093 3.49485 14.7418 3.57019 14.8582C3.64552 14.9746 3.74719 15.0716 3.86696 15.1414C4.49562 15.5053 5.16974 15.7843 5.87171 15.9711C6.00556 16.0062 6.14578 16.0094 6.28108 15.9803C6.41638 15.9513 6.54296 15.8909 6.65064 15.804L7.93977 14.7733H8.05609L9.34523 15.804C9.45324 15.8905 9.58007 15.9505 9.7155 15.979C9.85092 16.0075 9.99115 16.0038 10.1249 15.9682C10.8264 15.7822 11.5003 15.5042 12.1289 15.1414C12.2486 15.072 12.3503 14.9755 12.4259 14.8597C12.5014 14.7438 12.5488 14.6119 12.564 14.4744L12.7466 12.8341L12.8283 12.7523L14.4694 12.5646C14.6068 12.5494 14.7388 12.502 14.8547 12.4265C14.9705 12.3509 15.067 12.2492 15.1364 12.1295C15.5003 11.5008 15.7793 10.8267 15.9661 10.1247C16.0014 9.99134 16.0049 9.85153 15.9764 9.71652C15.9478 9.58151 15.8881 9.45506 15.8019 9.34729L14.7712 8.05816ZM12.9954 7.69815C13.0072 7.89921 13.0072 8.10079 12.9954 8.30185C12.9823 8.52042 13.0508 8.73609 13.1876 8.90703L14.1329 10.0887C14.0437 10.3528 13.9372 10.6108 13.8141 10.861L12.31 11.0281C12.0922 11.053 11.8915 11.158 11.7468 11.3226C11.6131 11.4733 11.4705 11.6159 11.3198 11.7496C11.1552 11.8943 11.0502 12.095 11.0253 12.3128L10.8589 13.8162C10.6088 13.9397 10.3508 14.0467 10.0866 14.1364L8.90496 13.1904C8.74815 13.0653 8.55341 12.9972 8.35279 12.9975C8.33512 12.9975 8.31745 12.9975 8.29978 12.9975C8.09872 13.0093 7.89714 13.0093 7.69608 12.9975C7.47766 12.9846 7.26215 13.0527 7.0909 13.1889L5.90926 14.135C5.64512 14.0457 5.38713 13.9392 5.13695 13.8162L4.96983 12.3121C4.94493 12.0943 4.83997 11.8936 4.67534 11.7489C4.52466 11.6151 4.38207 11.4725 4.24833 11.3219C4.10362 11.1572 3.90289 11.0523 3.68512 11.0274L2.18174 10.861C2.05818 10.6108 1.9512 10.3528 1.86148 10.0887L2.8068 8.90703C2.94363 8.73609 3.01211 8.52042 2.99895 8.30185C2.98717 8.10079 2.98717 7.89921 2.99895 7.69815C3.01211 7.47958 2.94363 7.26391 2.8068 7.09297L1.86296 5.91133C1.95219 5.64719 2.05868 5.3892 2.18174 5.13902L3.68585 4.9719C3.90362 4.947 4.10436 4.84204 4.24907 4.67741C4.38281 4.52673 4.5254 4.38414 4.67608 4.2504C4.84071 4.10569 4.94567 3.90495 4.97057 3.68719L5.13695 2.18381C5.38709 2.06025 5.64508 1.95327 5.90926 1.86355L7.0909 2.8096C7.26215 2.9458 7.47766 3.01396 7.69608 3.00102C7.89714 2.98924 8.09872 2.98924 8.29978 3.00102C8.51826 3.01439 8.73391 2.94617 8.90496 2.8096L10.0866 1.86355C10.3508 1.95327 10.6088 2.06025 10.8589 2.18381L11.026 3.68792C11.0509 3.90569 11.1559 4.10643 11.3205 4.25114C11.4712 4.38488 11.6138 4.52747 11.7475 4.67815C11.8922 4.84278 12.093 4.94774 12.3107 4.97264L13.8141 5.13902C13.9377 5.38916 14.0447 5.64715 14.1344 5.91133L13.1891 7.09297C13.0517 7.2637 12.9827 7.47939 12.9954 7.69815Z" fill="#00213F"/>
</svg>
