<svg width="16" height="16" viewBox="0 0 16 16" fill="none" xmlns="http://www.w3.org/2000/svg">
<path id="Vector" d="M11.3535 0.0903283C11.204 0.0172367 11.037 -0.0124189 10.8715 0.0047362C10.706 0.0218913 10.5486 0.0851682 10.4172 0.187366L5.32464 4.14812H2.07426C1.68135 4.14812 1.30452 4.3042 1.02669 4.58204C0.748858 4.85987 0.592773 5.23669 0.592773 5.62961V10.3704C0.592773 10.7633 0.748858 11.1401 1.02669 11.4179C1.30452 11.6958 1.68135 11.8518 2.07426 11.8518H5.32464L10.4172 15.8126C10.5486 15.9148 10.706 15.9781 10.8715 15.9953C11.0371 16.0124 11.2041 15.9828 11.3536 15.9097C11.5031 15.8366 11.6291 15.723 11.7172 15.5818C11.8053 15.4406 11.8521 15.2775 11.8521 15.1111V0.888849C11.8521 0.722427 11.8053 0.55935 11.7172 0.418179C11.6291 0.277009 11.5031 0.163416 11.3535 0.0903283ZM2.37056 5.9259H4.74093V10.0741H2.37056V5.9259ZM10.0743 13.2933L6.51872 10.5281V5.47183L10.0743 2.70663V13.2933ZM15.4076 7.99998C15.4078 8.79401 15.118 9.56077 14.5928 10.1563C14.4368 10.3331 14.217 10.4407 13.9817 10.4554C13.7463 10.4702 13.5148 10.3908 13.338 10.2348C13.1612 10.0788 13.0536 9.85898 13.0389 9.62366C13.0241 9.38833 13.1035 9.1568 13.2595 8.97999C13.4978 8.70944 13.6293 8.36127 13.6293 8.00072C13.6293 7.64018 13.4978 7.29201 13.2595 7.02146C13.1139 6.8433 13.043 6.61562 13.0618 6.3863C13.0806 6.15697 13.1876 5.94387 13.3603 5.79181C13.533 5.63975 13.7579 5.56058 13.9878 5.57094C14.2176 5.58131 14.4345 5.6804 14.5928 5.84738C15.1175 6.44173 15.4073 7.20716 15.4076 7.99998Z" fill="#00213F"/>
</svg>
